<svg width="46" height="15" viewBox="0 0 46 15" fill="none" xmlns="http://www.w3.org/2000/svg">
<path d="M3.85704 14.2559L0 0.400164C0 0.350143 0 0.350145 0 0.300124C0 0.100042 0.100183 0 0.35064 0L3.25594 0C3.35613 0 3.45631 0.0500209 3.55649 0.100041C3.60658 0.150062 3.65667 0.250103 3.70677 0.350144L5.45996 7.70316C5.51006 7.75318 5.51006 7.80321 5.56015 7.80321C5.61024 7.80321 5.61024 7.75318 5.61024 7.70316L7.31335 0.350144C7.36344 0.150062 7.51371 0 7.71408 0L10.2186 0C10.419 0 10.5693 0.100041 10.6194 0.350144L12.4728 7.70316C12.5229 7.75318 12.5229 7.80321 12.5729 7.80321C12.623 7.80321 12.623 7.75318 12.623 7.70316L14.226 0.350144C14.226 0.250103 14.2761 0.200083 14.3762 0.100041C14.4764 3.80136e-07 14.5265 0 14.6768 0L17.532 0C17.6322 0 17.7324 0.0500209 17.8325 0.100041C17.8826 0.150062 17.9327 0.250102 17.8826 0.400164L14.4263 14.2559C14.3762 14.506 14.226 14.606 14.0256 14.606H11.2205C11.1203 14.606 11.0201 14.556 10.9199 14.506C10.8698 14.4559 10.8197 14.3559 10.7697 14.2559L9.01646 6.40263C9.01646 6.35261 8.96636 6.30259 8.91627 6.30259C8.86618 6.30259 8.86618 6.35261 8.81609 6.40263L7.21316 14.2559C7.16307 14.506 7.0128 14.606 6.81243 14.606H4.20768C4.0574 14.556 3.90713 14.4559 3.85704 14.2559Z" fill="#A0A0A0"/>
<path d="M23.2427 4.10177C23.9941 4.40189 24.5952 4.85208 24.9959 5.4023C25.4467 5.95253 25.6471 6.55277 25.6471 7.25306V14.2559C25.6471 14.356 25.597 14.456 25.5469 14.506C25.4968 14.5561 25.3966 14.6061 25.2965 14.6061L22.5915 14.6061C22.4913 14.6061 22.3912 14.5561 22.3411 14.506C22.291 14.456 22.2409 14.356 22.2409 14.2559V13.8558C22.2409 13.8058 22.2409 13.7557 22.1908 13.7557C22.1407 13.7557 22.0906 13.7557 22.0906 13.8058C21.5396 14.506 20.638 14.8062 19.3857 14.8062C18.2837 14.8062 17.382 14.5561 16.7308 14.0058C16.0796 13.4556 15.729 12.7053 15.729 11.7049C15.729 10.6545 16.0796 9.80411 16.831 9.20386C17.5824 8.60362 18.6343 8.30349 20.087 8.30349H22.0906C22.1908 8.30349 22.2409 8.25347 22.2409 8.15343V7.80329C22.2409 7.40312 22.1407 7.15302 21.8902 6.90292C21.6398 6.70284 21.2892 6.55278 20.8383 6.55278C20.5378 6.55278 20.2372 6.6028 19.9868 6.70284C19.7363 6.80288 19.586 6.95294 19.4859 7.15302C19.4358 7.25306 19.3356 7.30308 19.2855 7.3531C19.2354 7.40312 19.1352 7.40312 19.035 7.40312L16.2299 7.05298C15.9795 7.00296 15.8793 6.95294 15.8793 6.75286C15.9294 6.15261 16.1798 5.60238 16.6306 5.1522C17.0815 4.70201 17.6325 4.30185 18.3338 4.00173C19.035 3.7016 19.8365 3.60156 20.6881 3.60156C21.6899 3.60156 22.4913 3.75162 23.2427 4.10177ZM21.6899 11.855C22.0405 11.6048 22.1908 11.2047 22.1908 10.7545V10.3043C22.1908 10.2043 22.1407 10.1543 22.0405 10.1543H20.8383C20.2873 10.1543 19.8866 10.2543 19.6361 10.4044C19.3857 10.5544 19.1853 10.8545 19.1853 11.2047C19.1853 11.5048 19.2855 11.7549 19.4859 11.955C19.6862 12.1551 19.9868 12.2051 20.3875 12.2051C20.9385 12.2551 21.3893 12.1051 21.6899 11.855Z" fill="#A0A0A0"/>
<path d="M27.6009 14.2551L24.395 4.20095C24.395 4.15092 24.395 4.1009 24.395 4.05088C24.395 3.8508 24.4952 3.80078 24.7457 3.80078L27.7511 3.80078C27.8513 3.80078 27.9515 3.8508 28.0517 3.90082C28.1519 3.95084 28.1519 4.05088 28.202 4.15092L29.5544 9.7032C29.6045 9.75323 29.6045 9.80325 29.6546 9.80325C29.7047 9.80325 29.7047 9.75323 29.7548 9.7032L31.1073 4.15092C31.1073 4.05088 31.1574 4.00086 31.2575 3.90082C31.3577 3.8508 31.4078 3.80078 31.5581 3.80078L34.5636 3.80078C34.7139 3.80078 34.814 3.8508 34.8641 3.90082C34.9142 3.95084 34.9142 4.05088 34.8641 4.20095L31.5581 14.2551C31.508 14.4552 31.3577 14.5552 31.1073 14.5552H28.0517C27.8012 14.5552 27.651 14.4552 27.6009 14.2551Z" fill="#A0A0A0"/>
<path fill-rule="evenodd" clip-rule="evenodd" d="M42.327 5.40035C41.8761 4.85012 41.2751 4.39994 40.5237 4.09981C39.7723 3.74967 38.9208 3.59961 37.969 3.59961C37.1175 3.59961 36.316 3.69965 35.6147 3.99977C34.9134 4.2999 34.3624 4.70006 33.9116 5.15025C33.4608 5.60043 33.2103 6.15066 33.1602 6.7509C33.1602 6.95099 33.2604 7.00101 33.5109 7.05103L36.316 7.40117C36.4162 7.40117 36.5164 7.40117 36.5665 7.35115C36.5816 7.33601 36.6014 7.32086 36.6229 7.30433C36.6726 7.26626 36.7319 7.22082 36.7668 7.15107C36.867 6.95098 37.0173 6.80092 37.2677 6.70088C37.5182 6.60084 37.8187 6.55082 38.1193 6.55082C38.5701 6.55082 38.9208 6.70088 39.1712 6.90096C39.4217 7.15107 39.5219 7.40117 39.5219 7.80134V8.15148C39.5219 8.25152 39.4718 8.30154 39.3716 8.30154H37.3679C35.9654 8.30154 34.9134 8.60166 34.1621 9.20191C33.4107 9.80216 33.0601 10.6525 33.0601 11.7029C33.0601 12.7033 33.4107 13.5037 34.0619 14.0039C34.7632 14.5541 35.6147 14.8042 36.7167 14.8042C37.969 14.8042 38.8707 14.5041 39.4217 13.8038C39.4217 13.7538 39.4718 13.7538 39.5219 13.7538C39.5719 13.7538 39.5719 13.8038 39.5719 13.8538V14.254C39.5719 14.354 39.622 14.4541 39.6721 14.5041C39.7222 14.5541 39.8224 14.6041 39.9226 14.6041L41.1328 14.6041C40.7477 14.0622 40.5552 13.4488 40.5552 12.6823C40.5552 11.8026 40.857 11.0829 41.536 10.4431C41.9937 10.012 42.4513 9.72613 42.9782 9.58553V7.25111C42.9782 6.55082 42.7778 5.95057 42.327 5.40035ZM39.4718 10.7525C39.4718 11.2027 39.3215 11.6029 38.9708 11.853C38.6202 12.1031 38.1694 12.2532 37.6685 12.2031C37.2677 12.2031 36.9672 12.1531 36.7668 11.953C36.5665 11.753 36.4663 11.5029 36.4663 11.2027C36.4663 10.8526 36.6666 10.5525 36.9171 10.4024C37.1676 10.2523 37.5683 10.1523 38.1193 10.1523H39.3215C39.4217 10.1523 39.4718 10.2023 39.4718 10.3024V10.7525Z" fill="#A0A0A0"/>
<path d="M42.409 14.2016C42.0208 13.7903 41.8267 13.3276 41.8267 12.7107C41.8267 12.1452 42.0208 11.6825 42.4575 11.2712C42.8943 10.8599 43.331 10.6543 43.9134 10.6543C44.4957 10.6543 44.9324 10.8599 45.3692 11.2712C45.8059 11.6825 46 12.1452 46 12.7107C46 13.2762 45.8059 13.7903 45.4177 14.2016C45.0295 14.6129 44.5442 14.8185 43.9134 14.8185C43.2825 14.8185 42.7972 14.6129 42.409 14.2016Z" fill="#A0A0A0"/>
</svg>
