<svg width="208" height="34" viewBox="0 0 208 34" fill="none" xmlns="http://www.w3.org/2000/svg">
<path d="M83.6153 31.7558H75.4107L61.8495 0.638581H70.4094L79.0469 26.1209H79.5766L81.6953 17.9189L87.4554 0.638581H96.7245L102.551 17.9816L104.67 26.0583H105.133L106.523 17.9816L110.297 0.638581H117.779L109.635 31.7558H101.729L95.416 14.4128L92.2224 6.58653H91.7589L89.574 14.4128L83.6153 31.7558Z" fill="#022219"/>
<path d="M145.499 31.7558H138.878V25.62L138.679 23.9295V11.971C138.679 9.63355 138.083 8.04743 136.892 7.21263C135.744 6.37783 133.868 5.96043 131.264 5.96043C128.66 5.96043 126.784 6.3987 125.636 7.27524C124.533 8.15178 123.981 9.61268 123.981 11.6579V12.5971H117.095V11.971C117.095 9.63355 117.691 7.56742 118.883 5.7726C120.119 3.97778 121.818 2.57949 123.981 1.57773C126.188 0.53423 128.748 0.0124799 131.661 0.0124799C134.751 0.0124799 137.311 0.555101 139.341 1.64034C141.372 2.72558 142.894 4.22822 143.91 6.14826C144.969 8.02656 145.499 10.2597 145.499 12.8475V31.7558ZM126.629 32.3819C123.672 32.3819 121.178 31.6723 119.148 30.2531C117.162 28.7922 116.168 26.7261 116.168 24.0547C116.168 22.3017 116.588 20.8407 117.426 19.672C118.309 18.5033 119.567 17.5433 121.2 16.792C122.833 16.0406 124.82 15.5189 127.159 15.2267L139.341 13.5989V18.3572L128.218 19.9225C126.32 20.1729 124.996 20.5486 124.246 21.0494C123.495 21.5503 123.12 22.3851 123.12 23.5539C123.12 24.7643 123.562 25.6409 124.444 26.1835C125.371 26.7261 126.872 26.9974 128.947 26.9974C130.536 26.9974 132.058 26.7678 133.515 26.3087C135.016 25.8078 136.252 24.9939 137.223 23.8669C138.194 22.6982 138.679 21.0703 138.679 18.9833L139.606 26.9348L138.547 26.8722C137.929 27.8322 137.068 28.7296 135.965 29.5644C134.905 30.3992 133.603 31.0879 132.058 31.6305C130.514 32.1314 128.704 32.3819 126.629 32.3819Z" fill="#022219"/>
<path d="M167.428 31.7558H158.357L145.182 0.638581H153.127L162.727 25.3069H163.191L172.857 0.638581H180.603L167.428 31.7558Z" fill="#022219"/>
<path d="M208 31.7558H201.379V25.62L201.181 23.9295V11.971C201.181 9.63355 200.585 8.04743 199.393 7.21263C198.245 6.37783 196.369 5.96043 193.765 5.96043C191.161 5.96043 189.285 6.3987 188.138 7.27524C187.034 8.15178 186.482 9.61268 186.482 11.6579V12.5971H179.597V11.971C179.597 9.63355 180.193 7.56742 181.384 5.7726C182.62 3.97778 184.319 2.57949 186.482 1.57773C188.689 0.53423 191.249 0.0124799 194.162 0.0124799C197.252 0.0124799 199.812 0.555101 201.843 1.64034C203.873 2.72558 205.396 4.22822 206.411 6.14826C207.47 8.02656 208 10.2597 208 12.8475V31.7558ZM189.131 32.3819C186.173 32.3819 183.679 31.6723 181.649 30.2531C179.663 28.7922 178.67 26.7261 178.67 24.0547C178.67 22.3017 179.089 20.8407 179.928 19.672C180.81 18.5033 182.068 17.5433 183.702 16.792C185.335 16.0406 187.321 15.5189 189.66 15.2267L201.843 13.5989V18.3572L190.72 19.9225C188.822 20.1729 187.497 20.5486 186.747 21.0494C185.997 21.5503 185.622 22.3851 185.622 23.5539C185.622 24.7643 186.063 25.6409 186.946 26.1835C187.873 26.7261 189.373 26.9974 191.448 26.9974C193.037 26.9974 194.56 26.7678 196.016 26.3087C197.517 25.8078 198.753 24.9939 199.724 23.8669C200.695 22.6982 201.181 21.0703 201.181 18.9833L202.107 26.9348L201.048 26.8722C200.43 27.8322 199.569 28.7296 198.466 29.5644C197.407 30.3992 196.105 31.0879 194.56 31.6305C193.015 32.1314 191.205 32.3819 189.131 32.3819Z" fill="#022219"/>
<path d="M51.6992 7.69503L44.6623 7.69503L44.6623 0.670422L51.6992 0.670421V7.69503Z" fill="#022219"/>
<path d="M50.943 32.0302L45.2426 32.0302L22.6081 0L31.3093 7.37591e-06L50.943 32.0302Z" fill="#022219"/>
<path d="M28.7779 31.8827L23.0778 31.8827L0 0.234433L8.51106 0.23442L28.7779 31.8827Z" fill="#022219"/>
</svg>
